Coordinates
version=1
nRows=26
nColumns=22
inDegrees=yes

Units are S.I. units (second, meters, Newtons, ...)
If the header above contains a line with 'inDegrees', this indicates whether rotational values are in degrees (yes) or radians (no).

endheader
time	pelvis_tilt	pelvis_list	pelvis_rotation	pelvis_tx	pelvis_ty	pelvis_tz	hip_flexion_r	hip_adduction_r	hip_rotation_r	knee_angle_r	ankle_angle_r	subtalar_angle_r	hip_flexion_l	hip_adduction_l	hip_rotation_l	knee_angle_l	ankle_angle_l	subtalar_angle_l	lumbar_extension	lumbar_bending	lumbar_rotation
      1.14000000	     -0.71180112	      1.41309279	     -0.82886206	     -0.63656866	      0.92251749	      0.64912997	     20.63037385	     -5.56456846	     -0.06031965	    -68.67360251	     -3.44003306	      7.76706002	     14.40848004	      7.26055207	     -4.66568488	    -30.34590984	     15.11773527	     -9.11578626	     -8.77705042	     -6.96633366	     -4.80168516
      1.15000000	     -0.57549586	      1.27523359	     -0.18083810	     -0.62884478	      0.92353417	      0.64726362	     21.74944968	     -5.36944061	      0.18027965	    -68.02608472	     -1.62154841	      7.72402456	     13.39203602	      7.34830023	     -4.07200269	    -29.77643730	     15.34584622	     -9.14343012	     -8.93929250	     -6.71734406	     -5.47293413
      1.16000000	     -0.44521359	      1.11841935	      0.48114005	     -0.62109724	      0.92456114	      0.64540205	     22.77512967	     -5.16194909	      0.40430155	    -67.09373685	      0.08250236	      7.55188597	     12.34764593	      7.39802692	     -3.46384534	    -29.14523012	     15.57757621	     -9.18233932	     -9.08283077	     -6.44731142	     -6.13665558
      1.17000000	     -0.32956261	      0.94553887	      1.14684733	     -0.61337708	      0.92554861	      0.64357500	     23.72596498	     -4.93007624	      0.64439456	    -65.90298025	      1.62136597	      7.30484699	     11.31112716	      7.40874646	     -2.84632937	    -28.49380012	     15.81127739	     -9.22622899	     -9.20801333	     -6.16196195	     -6.79960216
      1.18000000	     -0.22823421	      0.75834760	      1.80839786	     -0.60567537	      0.92649003	      0.64178522	     24.59539896	     -4.68152242	      0.89528035	    -64.45545692	      2.95214049	      7.02439956	     10.28371888	      7.38335432	     -2.22136938	    -27.82504249	     16.03921731	     -9.27954978	     -9.31655824	     -5.86355203	     -7.46117131
      1.19000000	     -0.14175107	      0.55250361	      2.45558683	     -0.59792931	      0.92738480	      0.64004892	     25.37175524	     -4.42740802	      1.12663938	    -62.75005968	      4.06857869	      6.71192004	      9.24972020	      7.31178195	     -1.60984320	    -27.11456069	     16.25752323	     -9.35840564	     -9.39729430	     -5.55500939	     -8.05307108
      1.20000000	     -0.06713484	      0.33873588	      3.08989224	     -0.59020020	      0.92820235	      0.63835177	     26.05771717	     -4.16900221	      1.36606621	    -60.80657507	      4.96450861	      6.44684525	      8.23013284	      7.21148632	     -0.99158596	    -26.40165487	     16.46007614	     -9.45978623	     -9.46830287	     -5.24198394	     -8.63568128
      1.21000000	     -0.00295386	      0.12006230	      3.70416713	     -0.58244058	      0.92893897	      0.63670994	     26.64418837	     -3.91483414	      1.59802390	    -58.62991790	      5.66748069	      6.22934228	      7.21050708	      7.08114448	     -0.38851202	    -25.66583253	     16.64513329	     -9.59552211	     -9.52383004	     -4.93384262	     -9.16486776
      1.22000000	      0.01134163	     -0.09841485	      4.31629502	     -0.57466864	      0.92948519	      0.63507771	     27.17774162	     -3.68993128	      1.79584942	    -56.24221689	      6.25174381	      6.14178772	      6.25053147	      6.92890535	      0.19378885	    -24.93824992	     16.83956196	     -9.71867042	     -9.51851958	     -4.63359673	     -9.66973211
      1.23000000	      0.06520347	     -0.30788526	      4.89696701	     -0.56684151	      0.93002552	      0.63352072	     27.55143027	     -3.47024695	      1.99413190	    -53.63024925	      6.62353290	      6.05257384	      5.21652033	      6.75795537	      0.76463298	    -24.15319189	     16.99253026	     -9.89454274	     -9.55885480	     -4.35499535	    -10.10762966
      1.24000000	      0.12139167	     -0.48523654	      5.43168131	     -0.55896563	      0.93045497	      0.63206108	     27.81834716	     -3.27259738	      2.21654573	    -50.82702798	      6.85562088	      6.00105966	      4.15959189	      6.58902818	      1.27310786	    -23.33232885	     17.12473367	    -10.08708520	     -9.60105953	     -4.12977065	    -10.48176604
      1.25000000	      0.14478129	     -0.64125327	      5.96342996	     -0.55102786	      0.93068587	      0.63059343	     28.01473761	     -3.12086643	      2.39365751	    -47.85549734	      6.99574842	      6.02375548	      3.12539289	      6.41757412	      1.73426262	    -22.48900440	     17.26769810	    -10.22805279	     -9.59997756	     -3.93547652	    -10.81485647
      1.26000000	      0.12744062	     -0.78306837	      6.50900630	     -0.54304794	      0.93068801	      0.62910336	     28.15337034	     -3.01131064	      2.50623953	    -44.73080870	      7.02310681	      6.10441959	      2.13695105	      6.24093326	      2.17908119	    -21.64966597	     17.43606851	    -10.30129629	     -9.54811576	     -3.76499088	    -11.14641866
      1.27000000	      0.13039987	     -0.88072860	      7.00834737	     -0.53497471	      0.93056684	      0.62769496	     28.17349019	     -2.91833341	      2.65815631	    -41.47226822	      6.96118604	      6.23332828	      1.09259432	      6.07957222	      2.54435981	    -20.75638494	     17.57068222	    -10.36276801	     -9.51744868	     -3.65707943	    -11.41278068
      1.28000000	      0.12278256	     -0.94500339	      7.49072071	     -0.52682561	      0.93024516	      0.62633359	     28.11355891	     -2.84194276	      2.83601309	    -38.10821350	      6.84443766	      6.43866069	      0.04582169	      5.92970094	      2.86256566	    -19.84668902	     17.69468623	    -10.40186868	     -9.47283312	     -3.60216049	    -11.64263698
      1.29000000	      0.10354624	     -0.97715966	      7.94447975	     -0.51861281	      0.92970330	      0.62500406	     27.98242794	     -2.77391894	      3.07667464	    -34.66446053	      6.70520495	      6.75317852	     -0.99404240	      5.79769093	      3.14169037	    -18.93910605	     17.80660220	    -10.41466386	     -9.41659756	     -3.59095625	    -11.82152312
      1.30000000	      0.05944674	     -0.99802540	      8.39948220	     -0.51033923	      0.92891849	      0.62366860	     27.79919493	     -2.70961353	      3.36361606	    -31.17092860	      6.49156318	      7.17290660	     -2.00246377	      5.66631687	      3.42190087	    -18.04947438	     17.93711487	    -10.39340141	     -9.33043124	     -3.59942951	    -11.98033284
      1.31000000	      0.00802678	     -1.00127662	      8.83490455	     -0.50199660	      0.92791283	      0.62235083	     27.55055005	     -2.64287536	      3.76406914	    -27.65674604	      6.24744856	      7.73417708	     -2.99969750	      5.54437443	      3.69556027	    -17.18228832	     18.08061359	    -10.34241574	     -9.23764734	     -3.63368316	    -12.09984443
      1.32000000	     -0.05332177	     -0.98769915	      9.26161595	     -0.49361444	      0.92667812	      0.62104698	     27.25077617	     -2.58562425	      4.29442402	    -24.16711371	      5.96498762	      8.41674286	     -3.95983274	      5.43368499	      3.97716333	    -16.37835470	     18.25495629	    -10.26871175	     -9.14194085	     -3.69318892	    -12.19502186
      1.33000000	     -0.11340697	     -0.96004741	      9.68457856	     -0.48517839	      0.92523502	      0.61971690	     26.90063097	     -2.55111436	      4.95594193	    -20.75802855	      5.66102910	      9.21318472	     -4.89619641	      5.33366906	      4.27412800	    -15.63657808	     18.46203411	    -10.18334418	     -9.05527658	     -3.76535040	    -12.27019122
      1.34000000	     -0.16758659	     -0.92043068	     10.10996894	     -0.47668444	      0.92359751	      0.61837467	     26.51988372	     -2.55154629	      5.70972208	    -17.50431934	      5.34158025	     10.05945939	     -5.79830922	      5.24078619	      4.59134131	    -14.98724678	     18.70809562	    -10.10124564	     -8.98360438	     -3.85316019	    -12.34345475
      1.35000000	     -0.21567566	     -0.87058007	     10.54444305	     -0.46813402	      0.92177749	      0.61695274	     26.14061580	     -2.60150544	      6.46971522	    -14.49613515	      5.02282461	     10.87867007	     -6.65729754	      5.15997565	      4.92679511	    -14.44755492	     18.99218219	    -10.03511739	     -8.92716849	     -3.93926560	    -12.40290883
      1.36000000	     -0.24588281	     -0.80598451	     10.98875999	     -0.45952576	      0.91981618	      0.61547323	     25.79401055	     -2.69793634	      7.15170256	    -11.85043537	      4.73179614	     11.62591885	     -7.48179167	      5.09372953	      5.30203761	    -14.02780334	     19.34032334	     -9.98854729	     -8.90211982	     -4.03286984	    -12.44434627
      1.37000000	     -0.26811871	     -0.75247019	     11.44219409	     -0.45085104	      0.91773753	      0.61394510	     25.52088170	     -2.80210666	      7.65970624	     -9.64702716	      4.46233082	     12.20699145	     -8.23565109	      5.01643247	      5.67865782	    -13.76556402	     19.71421612	     -9.97057032	     -8.88812664	     -4.10645849	    -12.46782235
      1.38000000	     -0.24816879	     -0.70184696	     11.89274741	     -0.44208093	      0.91562693	      0.61239048	     25.31239956	     -2.88977385	      7.96232684	     -7.97267290	      4.30384204	     12.67999279	     -8.97375017	      4.92823001	      6.02689415	    -13.62881160	     20.14096535	     -9.98115848	     -8.92324423	     -4.15987577	    -12.49956744
      1.39000000	     -0.22898586	     -0.68695129	     12.34511290	     -0.43325825	      0.91346458	      0.61082438	     25.22602816	     -2.92073620	      8.04604772	     -6.85308038	      4.18771708	     12.94996733	     -9.61342188	      4.80754119	      6.37519880	    -13.66929672	     20.59265766	    -10.00046192	     -8.95619198	     -4.16909745	    -12.48220454
